<?xml version="1.0" encoding="UTF-8" standalone="no"?>
<svg width="70px" height="70px" viewBox="0 0 70 70" version="1.1" xmlns="http://www.w3.org/2000/svg" xmlns:xlink="http://www.w3.org/1999/xlink" xmlns:sketch="http://www.bohemiancoding.com/sketch/ns">
    <!-- Generator: Sketch Beta 3.3.2 (12041) - http://www.bohemiancoding.com/sketch -->
    <title>compass</title>
    <desc>Created with Sketch Beta.</desc>
    <defs></defs>
    <g id="landing_pages_uikit" stroke="none" stroke-width="1" fill="none" fill-rule="evenodd" sketch:type="MSPage">
        <g id="Landing-page-with-card-aligned-left-Copy" sketch:type="MSArtboardGroup" transform="translate(-164.000000, -1247.000000)">
            <g id="sections" sketch:type="MSLayerGroup">
                <g id="section-2" transform="translate(0.000000, 794.000000)" sketch:type="MSShapeGroup">
                    <g id="items-+-btn-copy" transform="translate(165.000000, 258.000000)">
                        <g id="items">
                            <g id="item-1-copy-2" transform="translate(0.000000, 196.000000)">
                                <g id="compass">
                                    <circle id="Oval-19" stroke="#FFFFFF" cx="34" cy="34" r="34"></circle>
                                    <path d="M35.4186462,40.5060368 C33.4032863,40.5060368 31.4993749,40.0416682 29.7997857,39.229023 L33.6865512,32.8992141 C34.0859082,33.0106626 34.50384,33.0761386 34.9357028,33.0761386 C35.3722093,33.0761386 35.7901411,33.0106626 36.1848544,32.8992141 L40.2805858,39.5587248 C38.7760314,40.162404 37.1414538,40.5060368 35.4186462,40.5060368 L35.4186462,40.5060368 Z M34.9357028,25.6462404 C36.472763,25.6462404 37.7172709,26.8907483 37.7172709,28.4324522 C37.7172709,29.9695124 36.472763,31.218664 34.9357028,31.218664 C33.3986426,31.218664 32.1541347,29.9695124 32.1541347,28.4324522 C32.1541347,26.8907483 33.3986426,25.6462404 34.9357028,25.6462404 L34.9357028,25.6462404 Z M47,46.9932667 L37.8240757,32.0633506 C38.8874799,31.2140204 39.5747455,29.9045008 39.5747455,28.4324522 C39.5747455,26.184908 37.9819611,24.3083944 35.8644401,23.8811752 L35.8644401,20.0738168 L34.0116092,20.0738168 L34.0116092,23.8811752 C31.8940882,24.3083944 30.3013038,26.184908 30.3013038,28.4324522 C30.3013038,29.9045008 30.9839257,31.2140204 32.0519736,32.0633506 L28.2023576,38.3235042 C25.6994106,36.6610645 23.8001429,34.1581175 22.9224862,31.218664 L21,31.218664 C21.933381,34.8309877 24.1902125,37.9102161 27.2271834,39.9116449 L22.8714056,46.9932667 L24.450259,47.9261832 L28.8153242,40.8259868 C30.8074656,41.8109127 33.0457225,42.3635113 35.4186462,42.3635113 C37.4990177,42.3635113 39.4679407,41.9270048 41.2650473,41.1607966 L45.4211466,47.9261832 L47,46.9932667 L47,46.9932667 Z" id="Fill-531" fill="#FFFFFF"></path>
                                </g>
                            </g>
                        </g>
                    </g>
                </g>
            </g>
        </g>
    </g>
</svg>