<?xml version="1.0" encoding="UTF-8" standalone="no"?>
<svg width="70px" height="70px" viewBox="0 0 70 70" version="1.1" xmlns="http://www.w3.org/2000/svg" xmlns:xlink="http://www.w3.org/1999/xlink" xmlns:sketch="http://www.bohemiancoding.com/sketch/ns">
    <!-- Generator: Sketch Beta 3.3.2 (12041) - http://www.bohemiancoding.com/sketch -->
    <title>sketch</title>
    <desc>Created with Sketch Beta.</desc>
    <defs></defs>
    <g id="landing_pages_uikit" stroke="none" stroke-width="1" fill="none" fill-rule="evenodd" sketch:type="MSPage">
        <g id="Landing-page-with-card-aligned-left-Copy" sketch:type="MSArtboardGroup" transform="translate(-164.000000, -1051.000000)">
            <g id="sections" sketch:type="MSLayerGroup">
                <g id="section-2" transform="translate(0.000000, 794.000000)" sketch:type="MSShapeGroup">
                    <g id="items-+-btn-copy" transform="translate(165.000000, 258.000000)">
                        <g id="items">
                            <g id="item-1">
                                <g id="sketch">
                                    <circle id="Oval-19" stroke="#FFFFFF" cx="34" cy="34" r="34"></circle>
                                    <path d="M45.303467,29.9294771 L45.303467,29.8238126 L45.3371983,29.8892433 L45.303467,29.9294771 L45.303467,29.9294771 Z M25.6193839,24.2077427 L27.5623921,29.1130154 L23.0098763,29.1130154 L25.6193839,24.2077427 L25.6193839,24.2077427 Z M39.6073359,30.7382172 L44.639406,30.7382172 L34.868688,42.6498611 L39.6073359,30.7382172 L39.6073359,30.7382172 Z M28.2061329,30.7382172 L32.875286,42.532411 L23.4374113,30.7382172 L28.2061329,30.7382172 L28.2061329,30.7382172 Z M28.813704,28.0925399 L26.9397841,23.4270444 L32.3181088,23.4270444 L28.813704,28.0925399 L28.813704,28.0925399 Z M35.5705444,23.4270444 L40.7680201,23.4270444 L38.9619695,27.9665552 L35.5705444,23.4270444 L35.5705444,23.4270444 Z M29.6724315,29.1130154 L33.9323377,23.4355788 L38.192244,29.1130154 L29.6724315,29.1130154 L29.6724315,29.1130154 Z M37.8585879,30.7382172 L33.8851951,40.7279859 L29.8760389,30.7382172 L37.8585879,30.7382172 L37.8585879,30.7382172 Z M44.9320155,29.1130154 L40.2539216,29.1130154 L42.2749589,24.0325834 L44.9320155,29.1130154 L44.9320155,29.1130154 Z M46.8705533,29.311746 L43.3177866,22.5211742 C43.1105215,22.1265578 42.5748836,21.8014362 42.1282478,21.8014362 L33.9514386,21.8014362 C33.9420914,21.8014362 33.9335569,21.7977786 33.9246161,21.7977786 C33.9173009,21.7977786 33.910392,21.8014362 33.9030768,21.8014362 L25.8721659,21.8014362 C25.4251237,21.8014362 24.8878602,22.1229002 24.6773439,22.5211742 L21.1339245,29.1821037 C20.9238146,29.5759073 20.965674,30.1940448 21.2261778,30.5594003 L33.4190519,45.9299321 C33.5499134,46.1124066 33.7238535,46.2022214 33.8977936,46.2022214 C34.0697016,46.2022214 34.2420161,46.1124066 34.3736904,45.9335897 L35.3299544,44.7590878 L35.4827615,44.7066619 L35.4457789,44.6168471 L46.7669207,30.6898553 C47.0310821,30.3281575 47.0778183,29.71002 46.8705533,29.311746 L46.8705533,29.311746 Z" id="Fill-652" fill="#FFFFFF"></path>
                                </g>
                            </g>
                        </g>
                    </g>
                </g>
            </g>
        </g>
    </g>
</svg>