<?xml version="1.0" encoding="UTF-8" standalone="no"?>
<svg width="70px" height="70px" viewBox="0 0 70 70" version="1.1" xmlns="http://www.w3.org/2000/svg" xmlns:xlink="http://www.w3.org/1999/xlink" xmlns:sketch="http://www.bohemiancoding.com/sketch/ns">
    <!-- Generator: Sketch Beta 3.3.2 (12041) - http://www.bohemiancoding.com/sketch -->
    <title>svg</title>
    <desc>Created with Sketch Beta.</desc>
    <defs></defs>
    <g id="landing_pages_uikit" stroke="none" stroke-width="1" fill="none" fill-rule="evenodd" sketch:type="MSPage">
        <g id="Landing-page-with-card-aligned-left-Copy" sketch:type="MSArtboardGroup" transform="translate(-164.000000, -1149.000000)">
            <g id="sections" sketch:type="MSLayerGroup">
                <g id="section-2" transform="translate(0.000000, 794.000000)" sketch:type="MSShapeGroup">
                    <g id="items-+-btn-copy" transform="translate(165.000000, 258.000000)">
                        <g id="items">
                            <g id="item-1-copy" transform="translate(0.000000, 98.000000)">
                                <g id="svg">
                                    <circle id="Oval-19" stroke="#FFFFFF" cx="34" cy="34" r="34"></circle>
                                    <path d="M32.7964739,37.2629605 C32.4591593,37.6011423 31.9119985,37.6011423 31.5746839,37.2629605 C31.2373693,36.9247788 31.2373693,36.3737159 31.5746839,36.0398698 L33.4078025,34.2019819 L34.6295926,35.4242055 L32.7964739,37.2629605 L32.7964739,37.2629605 Z M31.405593,42.6430857 C30.1061946,44.5902323 24.468531,44.3777847 24.468531,44.3777847 C26.2027965,42.6430857 23.9920416,40.5186104 26.2027965,38.3078555 C27.4549362,37.0544151 28.505034,36.8077158 29.2585723,36.8857578 C29.3084324,37.2451843 29.4649499,37.5968066 29.7419988,37.8742891 L30.9637889,39.0965127 C31.2048518,39.3354078 31.4996769,39.487156 31.8092433,39.5565267 C32.0966978,40.4579111 32.1339845,41.550932 31.405593,42.6430857 L31.405593,42.6430857 Z M43.4387942,24.1644868 C43.7765424,23.8267386 44.3232696,23.8267386 44.6610178,24.1644868 C44.9983324,24.5031021 44.9983324,25.0489622 44.6610178,25.3875775 L35.8513826,34.2019819 L34.6300261,32.9788912 L43.4387942,24.1644868 L43.4387942,24.1644868 Z M46.4937029,25.9984725 C47.1687657,25.3225426 47.1687657,24.2256196 46.4937029,23.5488225 L45.2719128,22.3261653 C44.59685,21.654571 43.502962,21.654571 42.8283327,22.3261653 L33.4082361,31.756234 L33.4078025,31.756234 L32.1855789,32.9788912 L32.1860125,32.9788912 L29.7419988,35.4285412 C29.6370758,35.5330307 29.5542646,35.6500936 29.481859,35.7714922 C28.123062,35.5152545 26.2882091,35.6804433 24.468531,37.4402892 C21.5710069,40.241128 26.2027965,43.510652 21,46.1120502 C21,46.1120502 31.1493553,46.9483998 33.1398585,42.6430857 C33.6683759,41.498904 33.525299,40.3109321 33.1702082,39.2916176 C33.2530193,39.2313519 33.3336627,39.1706526 33.4078025,39.0965127 L46.4937029,25.9984725 L46.4937029,25.9984725 Z" id="Fill-391" fill="#FFFFFF"></path>
                                </g>
                            </g>
                        </g>
                    </g>
                </g>
            </g>
        </g>
    </g>
</svg>